<?xml version="1.0" standalone="no"?>
<!DOCTYPE svg PUBLIC "-//W3C//DTD SVG 20010904//EN"
 "http://www.w3.org/TR/2001/REC-SVG-20010904/DTD/svg10.dtd">
<svg version="1.0" xmlns="http://www.w3.org/2000/svg"
 width="294.000000pt" height="294.000000pt" viewBox="0 0 294.000000 294.000000"
 preserveAspectRatio="xMidYMid meet">
<metadata>
Created by potrace 1.11, written by Peter Selinger 2001-2013
</metadata>
<g transform="translate(0.000000,294.000000) scale(0.100000,-0.100000)"
fill="#000000" stroke="none">
<path d="M1245 2926 c-519 -86 -942 -418 -1136 -893 -83 -203 -115 -388 -106
-623 14 -381 164 -720 436 -987 577 -565 1495 -560 2066 12 197 196 323 419
389 685 122 497 -20 1016 -377 1381 -200 203 -440 338 -727 406 -130 31 -414
41 -545 19z m4 -272 c97 -28 161 -127 161 -247 l0 -38 -112 3 -113 3 -3 42
c-4 54 -31 73 -68 48 -28 -18 -31 -50 -8 -83 8 -12 66 -64 127 -115 91 -76
119 -105 145 -154 39 -74 49 -152 33 -248 -29 -163 -105 -221 -282 -214 -135
6 -209 55 -239 158 -6 20 -14 78 -17 129 l-6 92 110 0 110 0 5 -75 c5 -81 18
-105 54 -105 37 0 58 40 49 97 -6 46 -14 55 -150 188 -155 153 -169 174 -169
275 -1 168 89 257 260 259 33 1 84 -6 113 -15z m716 -8 c50 -21 91 -60 116
-108 16 -31 19 -59 19 -158 l0 -120 -110 0 -110 0 0 85 c0 72 -3 88 -20 105
-11 11 -24 20 -30 20 -5 0 -19 -9 -30 -20 -19 -19 -20 -33 -20 -284 0 -146 4
-276 9 -289 13 -34 47 -44 72 -21 17 15 19 31 19 126 l0 108 115 0 115 0 0
-116 c0 -63 -5 -135 -11 -159 -26 -103 -125 -165 -263 -165 -120 0 -196 37
-244 120 l-27 45 0 330 c0 361 2 378 58 441 32 37 73 62 122 75 46 12 176 3
220 -15z m-685 -1363 c53 -23 103 -76 121 -130 8 -21 14 -76 14 -123 -1 -95
-15 -133 -65 -172 l-31 -24 26 -14 c14 -8 36 -30 48 -49 20 -32 22 -49 22
-166 -1 -144 -9 -174 -64 -238 -47 -52 -120 -77 -230 -77 -107 0 -162 17 -214
68 -47 46 -67 109 -67 214 l0 78 115 0 115 0 0 -68 c0 -77 9 -92 56 -92 38 0
50 13 59 63 17 92 -26 187 -86 187 l-29 0 0 94 0 94 45 11 c33 8 48 19 60 41
32 61 8 130 -44 130 -36 0 -49 -15 -53 -65 l-3 -40 -112 -3 -113 -3 0 66 c0
126 60 205 177 235 61 15 202 6 253 -17z m721 2 c57 -20 94 -57 116 -114 16
-40 18 -84 18 -356 0 -239 -3 -321 -14 -359 -19 -63 -81 -130 -136 -145 -22
-6 -120 -11 -217 -11 l-178 0 0 500 0 500 184 0 c140 0 194 -4 227 -15z"/>
<path d="M1812 803 l3 -318 30 -3 c17 -2 39 4 50 12 19 14 20 28 23 263 4 338
-1 363 -74 363 l-34 0 2 -317z"/>
</g>
</svg>
