<?xml version="1.0" standalone="no"?>
<!DOCTYPE svg PUBLIC "-//W3C//DTD SVG 20010904//EN"
 "http://www.w3.org/TR/2001/REC-SVG-20010904/DTD/svg10.dtd">
<svg version="1.0" xmlns="http://www.w3.org/2000/svg"
 width="266.000000pt" height="266.000000pt" viewBox="0 0 266.000000 266.000000"
 preserveAspectRatio="xMidYMid meet">
<metadata>
Created by potrace 1.11, written by Peter Selinger 2001-2013
</metadata>
<g transform="translate(0.000000,266.000000) scale(0.100000,-0.100000)"
fill="#000000" stroke="none">
<path d="M390 2644 c-99 -27 -194 -104 -241 -196 -50 -98 -49 -66 -49 -1296
l0 -1152 1073 2 1072 3 58 23 c82 33 176 123 213 204 l29 63 3 1183 2 1182
-1052 -1 c-893 0 -1061 -3 -1108 -15z m890 -249 l0 -115 -265 0 c-285 0 -316
-5 -349 -51 -20 -29 -21 -88 -1 -115 24 -35 63 -43 235 -46 146 -3 170 -6 206
-25 110 -58 183 -195 184 -344 0 -100 -55 -217 -133 -284 -71 -61 -102 -65
-464 -65 l-323 0 0 120 0 120 276 0 276 0 39 39 c33 32 39 45 39 80 0 23 -7
55 -15 71 -26 50 -54 58 -235 61 -163 4 -166 4 -220 35 -108 61 -165 172 -165
324 0 73 4 92 27 136 40 77 72 110 140 143 l61 31 344 0 343 0 0 -115z m1030
-5 l0 -120 -242 0 c-147 0 -259 -4 -283 -11 -57 -16 -126 -89 -156 -164 -33
-84 -33 -253 -1 -336 29 -74 83 -136 130 -149 21 -5 149 -10 295 -10 l258 0
-3 -122 -3 -123 -306 0 -305 0 -76 37 c-184 92 -288 283 -288 533 0 270 131
500 323 566 45 16 90 18 355 19 l302 0 0 -120z m-1319 -1108 c183 -95 212
-373 51 -486 l-43 -30 36 -18 c68 -36 117 -140 119 -258 1 -67 -3 -84 -32
-142 -38 -77 -72 -109 -162 -152 l-65 -31 -262 -3 -263 -3 0 125 0 126 209 0
c200 0 209 1 242 23 67 45 76 146 16 191 -23 17 -46 21 -138 24 l-109 4 0 104
0 104 91 0 c108 0 150 16 173 65 20 42 20 74 0 103 -30 43 -50 47 -269 52
l-210 5 -3 113 -3 112 285 0 284 0 53 -28z m1029 -7 c115 -64 197 -175 242
-330 33 -116 33 -318 0 -425 -47 -152 -140 -268 -260 -327 l-57 -28 -317 -3
-318 -3 0 576 0 576 328 -3 327 -3 55 -30z"/>
<path d="M1580 735 l0 -335 123 0 c67 0 138 5 159 10 90 25 149 152 150 321 0
119 -14 189 -52 255 -43 75 -68 84 -239 84 l-141 0 0 -335z"/>
</g>
</svg>
